<svg width="1302" height="305" viewBox="0 0 1302 305" fill="none" xmlns="http://www.w3.org/2000/svg">
<path d="M247.9 198V0.399994H235.1L183.3 10.1V16.3L186.1 18.8C192.3 23.2 196.4 31.3 196.4 38.8V198C196.4 205.5 192.3 213.3 186.1 218L183.3 220.2V226.8H261V220.2L257.9 218C252.3 213.3 247.9 205.5 247.9 198Z" fill="black"/>
<path d="M428.1 207.3C425.6 211.7 420.9 211.7 420.9 211.7C414.7 211.7 412.2 208.6 412.2 200.5V122.4C412.2 73.7 372.9 61.5 337.9 61.5C302.9 61.5 275.1 76.8 275.1 98.3C275.1 119.8 286 123.6 299.8 123.6C313.6 123.6 324.5 112.7 324.5 99.6C324.5 86.5 320.8 84.9 315.4 80.6C317 79.4 320.1 78.4 324.5 78.4C335.4 78.4 352 85.3 358.2 105.9C356 131.8 264.5 125.6 264.5 183C264.5 240.4 286.7 229.8 315.4 229.8C344.1 229.8 351 221.7 361.3 206.1C364.7 222 376.6 229.8 393.5 229.8C410.4 229.8 428.2 215.1 428.2 207.3H428.1ZM360.3 167.1C358.4 185.5 347.2 197.7 335.9 197.7C324.6 197.7 316.2 188 316.2 172.4C316.2 145.5 344.6 140.2 360.2 129V167.1H360.3Z" fill="black"/>
<path d="M1195.4 197.8V178.6C1193.3 131 1145.6 130.1 1143.8 130.1V197.8C1143.8 205.3 1139.7 213.1 1133.5 217.8L1130.7 220V226.6H1208.5V220L1205.4 217.8C1199.8 213.1 1195.4 205.3 1195.4 197.8Z" fill="black"/>
<path d="M1294.2 216.2C1288 212.5 1281.4 205.9 1278.6 198.7L1266.7 169.6C1260.6 154.5 1248.4 140.8 1234 132.4C1220.1 136.5 1211.9 145.4 1206.9 154.5L1231.3 214.9C1234.4 221.8 1241 226.5 1248.5 226.5H1301.6V219.9L1294.1 216.2H1294.2Z" fill="black"/>
<path d="M1263.8 89C1269.7 84 1278.5 78.4 1285 75.3L1293.7 71.2V64.6H1240.6V71.2L1240.9 71.5C1246.2 77.1 1245.6 84 1239.6 89L1213 110.6C1217 114.6 1221.5 117.5 1226 119.7L1263.7 89.1L1263.8 89Z" fill="black"/>
<path d="M1143.9 38.4V125.9C1189.1 125.9 1194.7 86.3 1195.5 76.4V0H1182.7L1130.8 9.7V15.9L1133.6 18.4C1139.8 22.8 1143.9 30.9 1143.9 38.4Z" fill="black"/>
<path d="M538.2 76.9H539.5C544.3 78 548 79.2 550.6 80.5C553.2 81.8 554.9 84 555.7 87C556.5 90 555.7 94.4 553.3 100.1L523.7 171.1L493.6 100.1C491.4 94.7 490.4 90.5 490.7 87.5C490.9 84.6 492.3 82.3 494.9 80.6C497.5 79 501.5 77.7 507 76.8V68H409.7V76.5C410.6 76.7 411.3 77 412 77.5C416.4 78.8 420.3 81.1 423.9 84.5C427.5 87.9 431.2 93.8 435.2 102.3L494.6 241.3L493 245.1C490.7 250.6 487.3 255.6 482.8 260.1C478.3 264.6 472.2 266.5 464.3 265.8C461.8 265.6 459.3 264.8 457 263.6C454.7 262.3 452.3 260.9 450 259.5C447.7 258 445.1 256.7 442.4 255.5C439.6 254.3 436.7 253.7 433.5 253.7C430.3 253.7 426.2 254.7 421.7 256.6C415.8 259.4 411.9 263.6 410.2 269.2C408.5 274.8 409 280.4 411.8 285.9C414.6 291.4 419.5 296.1 426.6 299.9C433.7 303.7 443 305.1 454.5 304C463.2 303.4 470.6 301 476.6 297C482.7 293 488 288 492.5 282.2C497.1 276.4 501 269.9 504.3 262.8C507.6 255.7 510.6 248.6 513.4 241.6C514.9 238.2 517.2 232.4 520.4 224.2C522.4 219.1 524.6 213.5 526.9 207.6L570.3 102.3C573.8 93.4 577.6 87.3 581.7 84.2C585.8 81 590.7 78.7 596.4 77.2C596.8 77.2 597.3 77.1 597.7 76.9V68.1H538.3V76.9H538.2Z" fill="black"/>
<path d="M1047.2 61.5C996.3 61.5 962 95.2 962 145.8C962 196.4 996 229.8 1045.7 229.8C1095.4 229.8 1130.3 194.8 1130.3 144.6C1130.3 94.4 1097.5 61.5 1047.2 61.5ZM1045.6 210.5C1026.6 210.5 1013.8 185.2 1013.8 146.5C1013.8 107.8 1026.9 81.2 1046 81.2C1065.1 81.2 1078.5 106.5 1078.5 145.8C1078.5 185.1 1065.4 210.4 1045.7 210.4L1045.6 210.5Z" fill="black"/>
<path d="M870.5 61.5C819.6 61.5 785.3 95.2 785.3 145.8C785.3 196.4 819.3 229.8 869 229.8C918.7 229.8 953.6 194.8 953.6 144.6C953.6 94.4 920.8 61.5 870.5 61.5ZM868.9 210.5C849.9 210.5 837.1 185.2 837.1 146.5C837.1 107.8 850.2 81.2 869.3 81.2C888.4 81.2 901.8 106.5 901.8 145.8C901.8 185.1 888.7 210.4 869 210.4L868.9 210.5Z" fill="black"/>
<path d="M699.7 61.5C681.6 61.5 668.8 67.1 659.7 76.2V0.299988H646.9L595.1 10V16.2L597.9 18.7C604.1 23.1 608.2 31.2 608.2 38.7V226.7H621L629.4 223.3C632.2 222.1 635.6 221.4 639.1 221.4C642.6 221.4 647.8 222.3 652.2 224.2C663.4 228.6 675.6 229.8 686.9 229.8C746.2 229.8 776.2 196.4 776.2 146.4C776.2 96.4 745.3 61.5 699.7 61.5ZM691 210.5C671.6 210.5 660.7 187.7 659.8 174V139C661.4 103.7 674.5 81.2 693.2 81.2C711.9 81.2 724.7 107.1 724.7 144.9C724.7 182.7 711.6 210.5 691 210.5Z" fill="black"/>
<path d="M104.6 61.9C86.5 61.9 73.7 67.5 64.6 76.6V65H51.8L0 74.7V81.3L2.8 83.5C9 87.9 13.1 96 13.1 103.5V262.7C13.1 270.2 9 278.3 2.8 282.7L0 285.2V291.4H77.7V285.2L74.6 282.7C69 278.3 64.6 270.2 64.6 262.7V212.7C74.3 223.9 88.3 230.2 107.4 230.2C151.1 230.2 181.1 196.8 181.1 146.8C181.1 96.8 150.2 61.9 104.6 61.9ZM97.4 210.8C79 210.8 66.2 188 64.6 153V138.9C66.2 103.9 79.3 81.4 98 81.4C116.7 81.4 129.5 107.6 129.5 145.1C129.5 182.6 116.4 210.7 97.3 210.7L97.4 210.8Z" fill="black"/>
</svg>
