<svg width="400" height="635" viewBox="0 0 400 635" fill="none" xmlns="http://www.w3.org/2000/svg">
<path d="M400 435.001C400 545.458 310.457 635.001 200 635.001C89.5431 635.001 0 545.458 0 435.001V200C0 89.5432 89.5431 0 200 0C310.457 0 400 89.5431 400 200V435.001ZM199.999 213.335C142.009 213.335 94.999 260.345 94.999 318.335C94.9991 376.325 142.009 423.335 199.999 423.335C257.989 423.335 304.999 376.325 304.999 318.335C304.999 260.345 257.989 213.335 199.999 213.335Z" fill="white"/>
<path d="M199.846 431.664C261.471 429.303 310.976 379.798 313.337 318.173C201.026 318.252 199.885 429.421 199.846 431.664Z" fill="white"/>
<path d="M86.6699 318.173C89.031 379.798 138.536 429.303 200.121 431.664C200.043 319.472 89.1491 318.212 86.6699 318.173Z" fill="white"/>
<path d="M313.336 318.449C310.975 256.863 261.471 207.358 199.885 204.997C199.964 317.15 310.818 318.449 313.336 318.449Z" fill="white"/>
<path d="M86.6699 318.449C198.744 318.37 200.121 207.673 200.161 204.997C138.536 207.358 89.031 256.863 86.6699 318.449Z" fill="white"/>
</svg>
