<svg width="810" height="775" viewBox="0 0 810 775" fill="none" xmlns="http://www.w3.org/2000/svg">
<path d="M802.315 403.24C793.845 600.819 628.029 759.513 421.425 767.606C421.665 756.592 424.706 669.537 470.699 583.293C494.81 538.082 530.714 493.112 584.195 459.425C637.476 425.865 708.258 403.468 802.315 403.24Z" stroke="white" stroke-width="2"/>
<path d="M7.68335 403.258C19.112 403.481 110.353 406.368 200.649 450.558C247.848 473.656 294.759 508.024 329.887 559.17C364.876 610.111 388.216 677.754 388.461 767.607C181.986 759.523 16.1635 600.834 7.68335 403.258Z" stroke="white" stroke-width="2"/>
<path d="M421.538 7.3916C628.016 15.4758 793.839 174.169 802.315 371.623C790.931 371.458 699.634 368.595 609.301 324.379C562.111 301.281 515.212 266.912 480.094 215.774C445.116 164.841 421.782 97.2137 421.538 7.3916Z" stroke="white" stroke-width="2"/>
<path d="M388.575 7.39258C388.333 18.6138 385.219 105.877 339.003 192.165C314.843 237.273 278.914 282.097 225.469 315.663C172.226 349.103 101.543 371.405 7.68335 371.632C16.1548 174.18 181.971 15.4861 388.575 7.39258Z" stroke="white" stroke-width="2"/>
</svg>
