<svg width="610" height="610" viewBox="0 0 610 610" fill="none" xmlns="http://www.w3.org/2000/svg">
<path d="M602.913 318.609C595.953 472.487 472.52 595.932 318.647 602.911C319.025 590.2 322.442 524.618 355.594 459.646C373.679 424.202 400.589 388.987 440.647 362.615C480.3 336.511 532.951 318.999 602.913 318.609Z" stroke="#AF7E56" stroke-width="4"/>
<path d="M7.08789 318.647C19.8493 319.025 85.5259 322.458 150.526 355.705C185.92 373.809 221.068 400.729 247.384 440.773C273.433 480.412 290.901 533.025 291.29 602.913C137.512 595.953 14.0669 472.52 7.08789 318.647Z" stroke="#AF7E56" stroke-width="4"/>
<path d="M318.709 7.08594C472.491 14.046 595.938 137.484 602.912 291.263C590.225 290.928 524.486 287.522 459.437 254.244C424.049 236.14 388.91 209.221 362.603 169.183C336.561 129.55 319.098 76.9494 318.709 7.08594Z" stroke="#AF7E56" stroke-width="4"/>
<path d="M291.352 7.08789C290.972 19.899 287.514 85.6715 254.183 150.713C236.06 186.076 209.131 221.176 169.101 247.453C129.476 273.464 76.9 290.901 7.08594 291.29C14.0464 137.512 137.479 14.0672 291.352 7.08789Z" stroke="#AF7E56" stroke-width="4"/>
</svg>
